<svg width="320" height="131.00630789616886" viewBox="0 0 320 131.00630789616886" class="css-1j8o68f"><defs id="SvgjsDefs3474"></defs><g id="SvgjsG3475" featurekey="JiLV9t-0" transform="matrix(31.44654257803673,0,0,31.44654257803673,-26.03773753951713,-13.113208120087396)" fill="#17b978"><g xmlns="http://www.w3.org/2000/svg"><g><circle fill="#17b978" cx="1.033" cy="1.554" r="0.144"></circle></g><g><circle fill="#17b978" cx="0.972" cy="2.041" r="0.144"></circle></g><g><circle fill="#17b978" cx="1.21" cy="1.131" r="0.144"></circle></g><g><circle fill="#17b978" cx="3.04" cy="1.393" r="0.144"></circle></g><g><circle fill="#17b978" cx="3.864" cy="1.675" r="0.144"></circle></g><g><circle fill="#17b978" cx="3.805" cy="2.256" r="0.144"></circle></g><g><circle fill="#17b978" cx="3.438" cy="3.139" r="0.144"></circle></g><g><circle fill="#17b978" cx="3.226" cy="0.752" r="0.144"></circle></g><g><circle fill="#17b978" cx="3.592" cy="1.195" r="0.144"></circle></g><g><circle fill="#17b978" cx="2.271" cy="1.662" r="0.144"></circle></g><g><circle fill="#17b978" cx="2.854" cy="0.561" r="0.144"></circle></g><g><circle fill="#17b978" cx="1.61" cy="0.752" r="0.144"></circle></g><g><path fill="#17b978" d="M1.818,4.254c-0.036,0-0.064-0.028-0.064-0.063V2.419l-0.69-0.744C1.04,1.649,1.041,1.608,1.066,1.584    C1.093,1.56,1.133,1.561,1.157,1.588l0.708,0.763c0.011,0.011,0.017,0.027,0.017,0.042v1.797C1.882,4.227,1.854,4.254,1.818,4.254    z"></path></g><g><path fill="#17b978" d="M2.201,4.583c-0.036,0-0.064-0.029-0.064-0.065V2.149L1.165,1.177c-0.025-0.024-0.025-0.066,0-0.09    c0.025-0.025,0.065-0.025,0.09,0l0.991,0.991C2.258,2.09,2.265,2.106,2.265,2.123v2.395C2.265,4.553,2.236,4.583,2.201,4.583z"></path></g><g><path fill="#17b978" d="M2.628,4.583c-0.036,0-0.064-0.029-0.064-0.065V1.319c0-0.017,0.006-0.034,0.019-0.045l0.481-0.481    c0.025-0.024,0.065-0.024,0.09,0c0.025,0.025,0.025,0.066,0,0.09L2.692,1.346v3.172C2.692,4.553,2.664,4.583,2.628,4.583z"></path></g><g><path fill="#17b978" d="M3.036,4.254C3,4.254,2.971,4.227,2.971,4.191v-1.68c0-0.017,0.008-0.033,0.019-0.044l0.833-0.833    c0.026-0.026,0.066-0.026,0.091,0c0.025,0.024,0.025,0.065,0,0.09L3.1,2.538v1.653C3.1,4.227,3.072,4.254,3.036,4.254z"></path></g><g><path fill="#17b978" d="M3.593,2.019c-0.017,0-0.033-0.005-0.045-0.017L3.019,1.473c-0.025-0.026-0.025-0.066,0-0.091    c0.024-0.025,0.065-0.025,0.091,0L3.638,1.91c0.024,0.026,0.024,0.065,0,0.092C3.625,2.014,3.608,2.019,3.593,2.019z"></path></g><g><path fill="#17b978" d="M1.77,1.727c-0.017,0-0.033-0.006-0.046-0.019c-0.025-0.027-0.025-0.066,0-0.092l1.092-1.092    c0.025-0.026,0.066-0.026,0.091,0c0.025,0.025,0.025,0.065,0,0.09L1.815,1.708C1.802,1.72,1.786,1.727,1.77,1.727z"></path></g><g><path fill="#17b978" d="M2.126,1.369c-0.016,0-0.032-0.006-0.044-0.019L1.634,0.902c-0.025-0.024-0.025-0.066,0-0.09    c0.024-0.024,0.065-0.024,0.09,0L2.172,1.26c0.024,0.024,0.024,0.066,0,0.09C2.159,1.363,2.143,1.369,2.126,1.369z"></path></g><g><circle fill="#17b978" cx="2.129" cy="0.587" r="0.144"></circle></g><g><path fill="#17b978" d="M2.469,1.026c-0.016,0-0.032-0.006-0.045-0.019L2.153,0.736c-0.025-0.024-0.025-0.064,0-0.089    c0.025-0.025,0.066-0.025,0.091,0l0.271,0.271c0.025,0.024,0.025,0.066,0,0.09C2.502,1.02,2.485,1.026,2.469,1.026z"></path></g><g><path fill="#17b978" d="M2.62,2.07c-0.017,0-0.033-0.006-0.045-0.02L2.271,1.747c-0.025-0.024-0.025-0.064,0-0.089    c0.024-0.025,0.065-0.025,0.091,0l0.303,0.304c0.025,0.024,0.025,0.065,0,0.089C2.652,2.064,2.636,2.07,2.62,2.07z"></path></g><g><circle fill="#17b978" cx="3.031" cy="1.966" r="0.144"></circle></g><g><path fill="#17b978" d="M3.301,2.296c-0.016,0-0.033-0.007-0.045-0.02L3.031,2.052c-0.025-0.026-0.025-0.065,0-0.091    c0.025-0.025,0.066-0.025,0.091,0l0.225,0.224c0.026,0.026,0.026,0.066,0,0.091C3.334,2.289,3.318,2.296,3.301,2.296z"></path></g><g><path fill="#17b978" d="M3.219,1.647c-0.017,0-0.033-0.006-0.045-0.02c-0.025-0.024-0.025-0.065,0-0.091L3.521,1.19    c0.026-0.026,0.066-0.026,0.091,0c0.025,0.025,0.025,0.065,0,0.09L3.265,1.627C3.252,1.641,3.235,1.647,3.219,1.647z"></path></g><g><path fill="#17b978" d="M1.817,2.951c-0.016,0-0.032-0.006-0.045-0.019L0.926,2.085c-0.025-0.024-0.025-0.064,0-0.089    c0.025-0.025,0.065-0.025,0.091,0l0.846,0.846c0.025,0.024,0.025,0.066,0,0.09C1.851,2.945,1.834,2.951,1.817,2.951z"></path></g><g><circle fill="#17b978" cx="1.235" cy="2.86" r="0.144"></circle></g><g><path fill="#17b978" d="M1.816,3.505c-0.017,0-0.033-0.007-0.046-0.02L1.189,2.905c-0.025-0.025-0.025-0.066,0-0.09    c0.025-0.026,0.065-0.026,0.091,0l0.58,0.58c0.025,0.024,0.025,0.066,0,0.091C1.848,3.498,1.832,3.505,1.816,3.505z"></path></g><g><path fill="#17b978" d="M3.043,3.1c-0.017,0-0.033-0.006-0.046-0.019c-0.024-0.025-0.024-0.066,0-0.09L3.72,2.269    c0.024-0.026,0.065-0.026,0.09,0c0.024,0.024,0.024,0.064,0,0.09L3.088,3.082C3.076,3.094,3.059,3.1,3.043,3.1z"></path></g><g><path fill="#17b978" d="M3.036,3.605c-0.016,0-0.033-0.005-0.045-0.018c-0.025-0.026-0.025-0.065,0-0.091l0.403-0.403    c0.024-0.024,0.065-0.024,0.091,0c0.024,0.026,0.024,0.066,0,0.092L3.082,3.587C3.069,3.601,3.052,3.605,3.036,3.605z"></path></g></g></g><g id="SvgjsG3476" featurekey="Yxc9Rz-0" transform="matrix(3.353454091998423,0,0,3.353454091998423,114.9027530422275,21.952381333107507)" fill="#17b978"><path d="M12.28 6.199999999999999 l0.14 0.14 l0 13.6 q-0.8 0.18 -1.89 0.18 t-1.93 -0.12 l-3.14 -7.16 q-0.56 -1.22 -1.14 -2.82 l-0.06 0.02 q0.24 2.92 0.24 5.98 l0 3.98 q-0.62 0.12 -1.5 0.12 t-1.48 -0.12 l0 -13.6 q0.76 -0.18 1.83 -0.18 t1.91 0.12 l3.1 7.14 q0.84 1.98 1.24 3.04 l0.08 -0.04 q-0.24 -2.78 -0.24 -5.9 l0 -2.44 q0 -1.04 0.42 -1.49 t1.36 -0.45 l1.06 0 z M18.72 12.32 l0 7.68 q-0.34 0.06 -0.74 0.09 t-0.82 0.03 t-0.83 -0.03 t-0.75 -0.09 l0 -6.62 q0 -1.16 -0.94 -1.16 l-0.3 0 q-0.12 -0.38 -0.12 -1.06 q0 -0.66 0.12 -1.12 q0.52 -0.04 0.96 -0.07 t0.8 -0.03 l0.44 0 q1.02 0 1.6 0.64 t0.58 1.74 z M15.22 6 q0.58 -0.32 1.5 -0.32 q0.94 0 1.46 0.32 q0.24 0.54 0.24 1.16 t-0.24 1.16 q-0.58 0.3 -1.52 0.3 t-1.44 -0.3 q-0.24 -0.54 -0.24 -1.16 t0.24 -1.16 z M29.56 18.56 q-0.1 0.42 -0.38 0.9 t-0.58 0.7 q-1.4 -0.04 -2.16 -1.06 q-1.3 1.2 -2.82 1.2 q-0.78 0 -1.36 -0.25 t-0.98 -0.67 t-0.6 -0.97 t-0.2 -1.15 q0 -0.86 0.31 -1.51 t0.85 -1.08 t1.26 -0.65 t1.54 -0.22 q0.46 0 0.81 0.01 t0.61 0.03 l0 -0.38 q0 -1.26 -1.3 -1.26 q-0.84 0 -2.94 0.64 q-0.6 -0.7 -0.76 -2.18 q0.48 -0.18 1.07 -0.34 t1.21 -0.28 t1.22 -0.19 t1.08 -0.07 q0.7 0 1.35 0.2 t1.14 0.61 t0.78 1.06 t0.29 1.55 l0 4.06 q0 0.92 0.56 1.3 z M23.52 17.06 q0 0.94 1.08 0.94 q0.56 0 1.26 -0.58 l0 -1.6 q-0.4 -0.02 -0.67 -0.03 t-0.41 -0.01 q-1.26 0 -1.26 1.28 z M42.42 6.199999999999999 l0.14 0.14 l0 13.6 q-0.8 0.18 -1.89 0.18 t-1.93 -0.12 l-3.14 -7.16 q-0.56 -1.22 -1.14 -2.82 l-0.06 0.02 q0.24 2.92 0.24 5.98 l0 3.98 q-0.62 0.12 -1.5 0.12 t-1.48 -0.12 l0 -13.6 q0.76 -0.18 1.83 -0.18 t1.91 0.12 l3.1 7.14 q0.84 1.98 1.24 3.04 l0.08 -0.04 q-0.24 -2.78 -0.24 -5.9 l0 -2.44 q0 -1.04 0.42 -1.49 t1.36 -0.45 l1.06 0 z M53.040000000000006 16.02 l-5.22 0 q0.04 0.9 0.46 1.4 t1.38 0.5 q0.48 0 1.11 -0.14 t1.45 -0.46 q0.66 0.68 0.82 1.84 q-1.6 1.14 -3.92 1.14 q-1.26 0 -2.11 -0.4 t-1.38 -1.12 t-0.75 -1.7 t-0.22 -2.14 q0 -1.12 0.27 -2.07 t0.82 -1.65 t1.4 -1.1 t1.99 -0.4 q0.96 0 1.73 0.32 t1.31 0.88 t0.83 1.34 t0.29 1.7 q0 1.22 -0.26 2.06 z M47.800000000000004 13.86 l2.64 0 l0 -0.22 q0 -0.74 -0.33 -1.22 t-0.99 -0.48 q-0.64 0 -0.95 0.45 t-0.37 1.47 z M61.04 10 q0.12 0.56 0.12 1.12 t-0.12 1.1 l-2.38 -0.04 l0 4.6 q0 0.94 0.88 0.94 l1.12 0 q0.26 0.72 0.26 1.32 t-0.08 0.86 q-1.48 0.2 -2.72 0.2 q-2.52 0 -2.52 -2.78 l0 -5.12 l-1.56 0.02 q-0.14 -0.5 -0.14 -1.09 t0.14 -1.13 l1.56 0.04 l0 -1.16 q0 -1.02 0.39 -1.45 t1.31 -0.43 l1.22 0 l0.14 0.14 l0 2.9 z"></path></g></svg>